<?xml version="1.0" encoding="utf-8"?>
<svg version="1.2" baseProfile="tiny-ps" xmlns="http://www.w3.org/2000/svg" width="1000" height="1000" viewBox="0 0 1024 1024">
    <title>andreasrisoy</title>
    <path fill="#0A3E7F" d="M 533.05 788.93 C518.51,790.09 504.17,790.11 497.00,789.00 C494.52,788.62 493.48,788.23 494.67,788.15 C495.86,788.07 497.04,787.44 497.29,786.75 C497.65,785.75 498.16,785.75 499.86,786.75 C501.02,787.44 504.57,787.96 507.74,787.90 C512.13,787.82 512.91,787.61 511.00,787.00 C509.62,786.56 509.19,786.15 510.04,786.10 C511.33,786.02 511.58,784.17 511.59,774.75 C511.59,768.56 511.73,756.75 511.89,748.50 C512.70,707.45 512.18,638.98 510.96,626.58 C510.40,620.88 510.47,614.84 511.14,609.82 C511.72,605.51 511.91,599.84 511.56,597.24 C510.05,586.15 509.89,579.52 511.00,575.14 C513.13,566.81 513.14,566.14 511.08,565.04 C510.01,564.47 508.20,564.00 507.07,564.00 C505.90,564.00 505.00,563.35 505.00,562.50 C505.00,561.48 503.97,561.00 501.75,560.98 C499.28,560.97 498.86,560.74 500.00,560.00 C501.06,559.32 499.74,559.03 495.50,559.03 C491.26,559.03 489.94,559.32 491.00,560.00 C492.02,560.66 489.22,560.97 482.19,560.98 C475.57,560.99 472.10,560.64 472.50,560.00 C472.89,559.37 470.79,559.00 466.89,559.00 C463.47,559.00 460.92,559.25 461.23,559.56 C461.54,559.87 460.74,561.26 459.45,562.64 C458.17,564.03 456.93,566.14 456.69,567.33 C456.46,568.52 456.21,566.91 456.14,563.75 L 456.00 558.00 L 509.95 558.00 L 511.49 560.99 C512.34,562.63 512.99,564.27 512.93,564.63 C512.88,564.98 513.26,565.55 513.78,565.89 C516.02,567.33 525.19,585.06 524.56,586.72 C524.18,587.70 523.59,588.03 523.20,587.47 C522.81,586.94 522.01,586.41 521.42,586.31 C519.73,586.00 520.14,588.82 522.05,590.54 C523.62,591.96 523.81,591.88 524.40,589.55 C524.75,588.15 525.37,587.01 525.77,587.02 C526.40,587.03 566.10,655.45 569.92,663.11 C571.21,665.69 571.16,666.17 569.44,668.07 C567.56,670.15 567.56,670.20 569.46,671.59 C571.77,673.28 573.59,671.97 572.58,669.35 C572.44,668.99 572.32,668.71 572.21,668.51 C576.12,668.02 586.52,667.91 610.27,667.97 C632.12,668.02 650.00,667.78 650.00,667.43 C650.00,666.36 642.20,652.81 602.08,584.16 C590.40,564.17 580.99,547.71 581.17,547.58 C581.35,547.45 584.65,545.64 588.50,543.57 C624.30,524.25 642.72,488.89 639.01,446.58 C635.41,405.55 610.91,375.12 571.50,362.73 C558.05,358.50 545.15,356.81 520.50,356.04 C507.85,355.65 500.26,355.26 503.63,355.17 C512.44,354.93 512.54,354.72 512.31,336.59 C512.09,320.17 512.06,261.05 512.26,257.00 C512.33,255.62 512.30,250.84 512.19,246.36 L 512.00 238.22 L 508.25 237.57 C506.19,237.22 502.25,236.52 499.50,236.03 C490.49,234.43 541.57,235.72 552.50,237.37 C574.95,240.77 597.21,246.76 616.15,254.52 C680.28,280.78 732.10,329.65 762.47,392.50 C813.29,497.67 791.81,623.40 708.74,707.11 C661.13,755.08 599.84,783.62 533.05,788.93 ZM 538.88 498.12 C532.58,500.07 522.78,500.35 507.00,499.00 L 499.50 498.36 L 505.42 498.18 C508.67,498.08 511.05,497.72 510.70,497.37 C510.35,497.02 510.48,495.97 510.99,495.02 C511.57,493.94 511.49,491.94 510.77,489.60 C509.92,486.84 509.92,485.09 510.77,482.70 C512.00,479.24 512.13,474.48 511.44,457.50 C510.58,436.33 510.69,429.46 511.98,424.09 C513.13,419.28 513.09,418.54 511.65,417.48 C509.42,415.86 481.12,414.48 479.67,415.93 C479.08,416.52 476.43,417.00 473.78,417.00 C469.45,417.00 468.84,417.28 467.92,419.72 C467.18,421.67 466.66,422.07 466.08,421.13 C465.49,420.17 465.13,420.38 464.73,421.92 C464.35,423.39 463.68,423.82 462.49,423.36 C461.51,422.98 460.43,423.30 459.91,424.10 C459.17,425.27 459.03,425.26 459.00,424.00 C458.97,422.67 458.86,422.67 458.00,424.00 C457.31,425.06 457.03,423.80 457.02,419.67 L 457.00 413.84 L 495.75 414.23 C532.43,414.60 534.86,414.74 541.16,416.82 C554.39,421.20 562.14,429.07 566.12,442.17 C568.91,451.35 568.44,466.62 565.11,475.20 C560.98,485.84 551.37,494.23 538.88,498.12 ZM 385.00 547.83 C385.00,610.62 384.77,662.00 384.50,662.00 C384.23,662.00 383.98,660.99 383.96,659.75 C382.82,595.88 382.70,568.34 383.50,558.00 C383.97,551.88 383.86,549.92 383.09,551.00 C382.28,552.14 382.03,551.30 382.03,547.50 C382.03,543.91 382.30,542.92 383.00,544.00 C383.69,545.07 383.97,544.01 383.98,540.25 C383.99,537.36 383.55,535.00 383.00,535.00 C381.78,535.00 381.66,530.33 382.86,529.59 C383.33,529.29 383.81,507.80 383.91,481.81 C384.02,455.82 384.30,434.36 384.55,434.12 L 384.55 434.11 C384.80,434.11 385.00,485.19 385.00,547.83 ZM 457.79 647.30 C457.71,654.34 457.28,660.33 456.82,660.61 C456.37,660.89 456.03,641.63 456.06,617.81 C456.10,593.60 456.49,575.41 456.96,576.56 C457.42,577.70 457.80,586.70 457.81,596.56 C457.82,606.43 457.85,619.00 457.87,624.50 C457.90,630.00 457.86,640.26 457.79,647.30 ZM 421.00 669.64 C415.23,669.69 406.90,670.06 402.50,670.46 C397.46,670.92 394.13,670.81 393.50,670.18 C392.95,669.62 391.38,668.97 390.00,668.72 C388.62,668.47 402.52,668.21 420.87,668.14 C451.66,668.01 454.14,668.13 452.89,669.63 C451.71,671.06 450.24,671.16 441.52,670.41 C436.01,669.94 426.77,669.60 421.00,669.64 ZM 364.00 745.58 C364.00,746.37 363.37,745.99 354.94,740.24 C340.79,730.59 332.14,723.27 316.94,708.06 C303.25,694.38 290.52,680.03 296.03,684.50 C297.39,685.60 298.83,686.95 299.23,687.50 C299.64,688.05 299.98,688.11 299.98,687.63 C299.99,687.15 300.67,687.31 301.49,687.99 C302.31,688.67 302.72,689.64 302.40,690.16 C301.41,691.77 326.23,717.00 328.81,717.00 C329.53,717.00 329.88,717.38 329.60,717.84 C328.41,719.77 348.01,735.32 350.45,734.38 C352.25,733.69 357.00,737.47 357.00,739.59 C357.00,740.28 358.58,741.81 360.50,743.00 C362.42,744.19 364.00,745.35 364.00,745.58 ZM 250.82 601.25 C250.76,602.76 250.57,604.00 250.40,604.00 C249.95,604.00 244.35,586.13 243.50,582.00 L 242.78 578.50 L 245.89 581.93 C248.28,584.57 249.00,584.95 249.00,583.56 C249.00,582.20 249.32,582.02 250.29,582.83 C251.19,583.57 251.48,586.11 251.25,591.20 C251.07,595.21 250.87,599.74 250.82,601.25 ZM 256.49 412.82 C255.07,413.47 253.65,414.00 253.34,414.00 C252.32,414.00 254.01,409.04 257.87,400.72 L 261.69 392.50 L 261.79 396.90 C261.84,399.35 262.46,401.68 263.19,402.14 C264.17,402.76 264.05,402.97 262.71,402.98 C261.72,402.99 260.99,403.56 261.07,404.25 C261.55,407.94 260.92,410.18 259.55,409.66 C258.65,409.31 258.29,409.58 258.59,410.37 C258.86,411.07 257.91,412.17 256.49,412.82 ZM 301.34 333.55 C298.49,337.68 293.06,343.60 293.03,342.61 C292.93,339.40 321.49,309.51 334.69,299.01 C338.99,295.60 340.92,294.25 339.00,296.02 C330.04,304.25 321.18,312.86 317.92,316.50 C315.95,318.70 312.84,321.64 311.00,323.04 C309.17,324.44 307.67,326.39 307.67,327.38 C307.67,328.37 306.66,329.56 305.42,330.03 C304.19,330.50 302.35,332.08 301.34,333.55 ZM 269.16 643.30 C269.71,644.33 269.93,645.40 269.64,645.69 C269.14,646.19 260.88,630.44 258.86,625.14 L 257.87 622.53 L 260.33 624.84 C261.68,626.11 263.62,627.28 264.64,627.44 C265.88,627.64 266.42,628.46 266.26,629.87 C266.13,631.04 266.38,632.00 266.82,632.00 C267.26,632.00 268.49,632.70 269.56,633.56 C271.41,635.04 271.40,635.06 269.19,633.99 C266.92,632.89 266.90,632.94 267.52,637.15 C267.87,639.51 268.61,642.27 269.16,643.30 ZM 272.61 374.48 C268.43,380.05 268.00,380.26 270.59,375.50 C274.14,368.95 289.72,345.29 291.01,344.50 C292.47,343.59 287.94,351.08 285.26,354.00 C283.25,356.19 281.02,361.66 281.01,364.44 C281.00,365.96 276.59,371.99 275.49,371.99 C274.93,372.00 273.64,373.12 272.61,374.48 ZM 388.43 266.49 C386.19,266.64 382.93,267.50 381.18,268.41 C379.43,269.31 378.00,269.82 378.00,269.53 C378.00,268.99 396.52,259.51 400.62,257.95 C403.71,256.78 403.40,258.66 400.00,261.82 C396.77,264.82 393.48,266.15 388.43,266.49 ZM 603.47 374.95 C603.83,375.53 604.34,376.00 604.62,376.00 C604.89,376.00 604.84,375.55 604.50,375.00 C604.16,374.45 604.36,374.00 604.94,374.00 C605.52,374.00 606.00,372.83 606.00,371.39 C606.00,369.11 605.69,368.86 603.49,369.41 C602.01,369.79 599.76,369.41 597.99,368.50 C596.35,367.64 595.00,367.28 595.00,367.67 C595.00,368.07 594.46,367.86 593.80,367.20 C592.10,365.50 591.00,365.71 591.01,367.75 C591.02,369.75 598.62,374.55 601.16,374.16 C602.08,374.02 603.11,374.38 603.47,374.95 ZM 556.47 356.14 C556.77,356.43 558.57,356.74 560.49,356.81 C562.97,356.90 564.25,356.39 564.98,355.03 C566.44,352.30 566.24,349.44 564.48,347.98 C563.21,346.93 563.06,346.98 563.55,348.28 C564.30,350.23 560.69,354.00 558.08,354.00 C557.03,354.00 555.99,353.48 555.78,352.85 C555.50,352.01 554.35,351.98 551.45,352.75 C549.28,353.32 548.40,353.85 549.50,353.91 C551.17,354.01 551.26,354.19 550.00,355.03 C548.89,355.77 549.46,355.97 552.21,355.81 C554.26,355.69 556.17,355.84 556.47,356.14 ZM 446.33 779.72 C447.88,780.98 448.78,781.98 448.33,781.95 C446.12,781.83 428.64,776.84 425.77,775.52 C422.58,774.05 422.67,774.02 429.50,774.57 C437.89,775.25 442.53,776.67 446.33,779.72 ZM 243.43 451.93 C243.60,452.24 242.93,453.33 241.94,454.36 C241.75,454.55 241.57,454.74 241.42,454.91 C240.97,455.39 240.66,455.72 240.53,455.66 C240.22,455.53 240.70,453.57 242.20,447.37 C242.45,446.36 242.72,445.24 243.02,444.00 C245.91,432.05 246.32,431.58 246.97,439.50 C247.48,445.78 247.31,446.75 245.32,448.93 C244.11,450.27 243.25,451.62 243.43,451.93 ZM 362.43 280.82 C358.24,285.03 354.28,287.85 349.64,289.94 C345.94,291.60 343.18,292.52 343.50,291.99 C344.25,290.79 354.54,283.47 362.50,278.48 L 368.50 274.72 ZM 403.38 765.54 C403.68,766.34 403.61,767.00 403.22,766.99 C401.96,766.97 380.00,756.13 380.00,755.53 C380.00,755.21 381.24,755.59 382.75,756.36 C384.26,757.14 387.71,758.08 390.41,758.44 C395.67,759.15 399.00,760.52 399.00,761.97 C399.00,762.46 399.86,763.14 400.91,763.47 C401.96,763.80 403.07,764.73 403.38,765.54 ZM 628.50 403.94 C631.22,405.04 631.34,404.77 630.56,399.55 C629.86,394.88 628.03,393.00 624.16,393.00 C622.68,393.00 622.32,393.50 622.71,395.00 C623.00,396.10 623.71,397.00 624.28,397.00 C624.86,397.00 625.04,397.29 624.68,397.65 C624.32,398.01 624.81,398.94 625.77,399.73 C626.92,400.67 627.00,400.93 626.00,400.50 C625.17,400.14 625.37,400.56 626.44,401.43 C627.51,402.29 627.96,403.03 627.44,403.07 C626.92,403.11 627.40,403.50 628.50,403.94 ZM 289.32 674.75 C289.59,675.99 289.67,677.00 289.49,677.00 C289.14,677.00 281.43,666.11 278.65,661.70 L 276.89 658.90 L 280.81 661.49 C284.54,663.96 288.21,669.68 289.32,674.75 ZM 546.59 646.25 C547.42,647.09 552.67,645.11 554.06,643.42 C554.91,642.41 554.93,642.00 554.12,642.00 C553.51,642.00 553.05,641.66 553.12,641.25 C553.44,639.24 552.83,637.98 551.10,637.05 C549.49,636.19 549.27,636.33 549.70,637.95 C550.02,639.18 549.45,640.33 548.10,641.17 C546.10,642.42 545.33,645.00 546.59,646.25 ZM 487.50 787.23 C489.15,787.49 487.58,787.71 484.00,787.73 C477.79,787.76 472.27,787.03 463.50,785.02 C460.22,784.26 460.59,784.21 465.50,784.74 C468.80,785.09 475.32,785.36 480.00,785.34 C484.68,785.32 487.60,785.63 486.50,786.03 C484.77,786.66 484.91,786.83 487.50,787.23 ZM 463.50 240.52 C450.66,242.76 446.42,243.31 447.06,242.64 C447.94,241.71 466.77,238.20 474.00,237.61 C479.46,237.17 479.86,237.23 476.50,238.01 C474.30,238.52 468.45,239.65 463.50,240.52 ZM 239.13 548.08 C239.93,548.57 239.98,550.21 239.33,553.64 L 238.41 558.50 L 237.73 554.50 C236.63,547.94 235.68,535.46 236.33,536.05 C236.66,536.35 237.18,539.03 237.47,541.99 C237.77,544.96 238.51,547.70 239.13,548.08 ZM 237.98 526.69 C237.97,531.57 236.92,534.59 235.68,533.35 C235.31,532.97 235.05,529.70 235.12,526.08 C235.18,522.46 235.44,520.29 235.69,521.26 C235.94,522.23 236.57,522.77 237.08,522.45 C237.59,522.13 237.99,524.00 237.98,526.69 ZM 432.25 248.30 C429.09,249.19 424.70,250.15 422.50,250.43 C419.14,250.86 419.56,250.57 425.13,248.58 C433.60,245.56 438.00,244.59 438.00,245.76 C438.00,246.27 435.41,247.41 432.25,248.30 ZM 595.68 542.60 C596.37,544.41 599.63,544.41 600.32,542.60 C600.67,541.70 600.00,541.04 598.45,540.75 C595.63,540.21 594.94,540.67 595.68,542.60 ZM 635.66 497.00 L 635.01 500.50 L 637.09 497.27 C639.21,493.97 639.39,491.48 637.41,492.78 C636.81,493.18 636.02,495.08 635.66,497.00 ZM 537.54 421.07 C538.27,422.25 543.00,422.29 543.00,421.12 C543.00,420.05 538.99,418.89 537.81,419.62 C537.35,419.90 537.23,420.56 537.54,421.07 ZM 492.00 573.92 C492.00,575.15 491.35,576.00 490.43,576.00 C489.50,576.00 488.99,575.32 489.18,574.33 C489.66,571.82 492.00,571.48 492.00,573.92 ZM 241.50 563.99 C240.35,565.86 239.00,565.02 239.00,562.43 C239.00,560.10 239.15,560.00 240.56,561.42 C241.42,562.28 241.85,563.44 241.50,563.99 ZM 628.00 621.71 C630.02,623.36 630.06,623.33 629.12,620.80 C628.67,619.59 627.78,618.43 627.12,618.21 C625.51,617.67 626.14,620.20 628.00,621.71 ZM 238.97 465.57 C239.58,466.18 239.61,467.68 239.06,469.52 C238.18,472.47 238.17,472.45 238.09,468.55 C238.03,465.99 238.34,464.94 238.97,465.57 ZM 571.11 668.70 C571.03,668.80 570.95,668.91 570.87,669.03 C570.19,670.01 569.96,670.07 570.20,669.18 C570.24,669.00 570.52,668.84 571.11,668.70 Z" />
    <path fill="#0B4184" d="M 385.00 668.00 L 456.00 668.00 L 456.00 558.00 L 456.14 563.75 C456.21,566.91 456.46,568.52 456.69,567.33 C456.93,566.14 458.17,564.03 459.45,562.64 C460.74,561.26 461.54,559.87 461.23,559.56 C460.92,559.25 463.47,559.00 466.89,559.00 C470.79,559.00 472.89,559.37 472.50,560.00 C472.10,560.64 475.57,560.99 482.19,560.98 C489.22,560.97 492.02,560.66 491.00,560.00 C489.94,559.32 491.26,559.03 495.50,559.03 C499.74,559.03 501.06,559.32 500.00,560.00 C498.86,560.74 499.28,560.97 501.75,560.98 C503.97,561.00 505.00,561.48 505.00,562.50 C505.00,563.35 505.90,564.00 507.07,564.00 C508.20,564.00 510.01,564.47 511.08,565.04 C513.14,566.14 513.13,566.81 511.00,575.14 C509.89,579.52 510.05,586.15 511.56,597.24 C511.91,599.84 511.72,605.51 511.14,609.82 C510.47,614.84 510.40,620.88 510.96,626.58 C512.18,638.98 512.70,707.45 511.89,748.50 C511.73,756.75 511.59,768.56 511.59,774.75 C511.58,784.17 511.33,786.02 510.04,786.10 C509.19,786.15 509.62,786.56 511.00,787.00 C512.91,787.61 512.13,787.82 507.74,787.90 C504.57,787.96 501.02,787.44 499.86,786.75 C498.16,785.75 497.65,785.75 497.29,786.75 C497.04,787.44 495.86,788.07 494.67,788.15 C493.48,788.23 494.52,788.62 497.00,789.00 C499.15,789.33 501.95,789.57 505.21,789.70 C482.13,789.12 459.15,785.55 436.31,778.97 C416.36,773.22 406.18,769.14 383.50,757.82 C347.22,739.70 308.84,706.10 285.46,672.00 C282.25,667.33 278.40,661.71 276.90,659.51 C275.40,657.32 274.39,654.00 274.00,654.00 C273.39,654.00 273.13,653.60 273.44,653.10 C273.74,652.61 273.29,651.94 272.43,651.61 C271.57,651.28 271.15,650.56 271.50,650.01 C271.84,649.45 271.61,649.00 271.00,649.00 C270.39,649.00 270.14,648.59 270.45,648.09 C270.76,647.58 270.61,647.02 270.12,646.84 C269.62,646.64 267.14,642.14 264.52,637.02 C267.02,641.80 269.38,645.95 269.64,645.69 C269.93,645.40 269.71,644.33 269.16,643.30 C268.61,642.27 267.87,639.51 267.52,637.15 C266.90,632.94 266.92,632.89 269.19,633.99 C271.40,635.06 271.41,635.04 269.56,633.56 C268.49,632.70 267.26,632.00 266.82,632.00 C266.38,632.00 266.13,631.04 266.26,629.87 C266.42,628.46 265.88,627.64 264.64,627.44 C263.62,627.28 261.68,626.11 260.33,624.84 L 257.87 622.53 L 258.86 625.14 C259.03,625.59 259.25,626.11 259.50,626.69 C258.24,623.92 257.47,621.99 257.74,621.98 C258.16,621.98 258.01,621.64 257.40,621.23 C256.15,620.40 251.61,609.41 248.83,600.50 C244.32,586.03 241.77,576.30 241.82,573.75 C241.84,572.24 241.49,571.00 241.02,571.00 C240.56,571.00 239.67,567.74 239.04,563.75 C238.41,559.76 237.48,554.25 236.96,551.50 C234.39,537.67 232.99,499.00 235.06,499.00 C235.77,499.00 235.89,496.70 235.43,492.00 C234.91,486.72 235.05,485.00 235.98,485.00 C236.89,485.00 237.04,483.78 236.55,480.50 C236.18,478.02 236.25,476.00 236.69,476.00 C237.14,476.00 237.60,473.01 237.70,469.35 C237.80,465.48 238.38,462.38 239.07,461.96 C239.72,461.55 239.98,460.77 239.63,460.21 C239.09,459.34 244.95,434.17 246.66,430.00 C247.00,429.17 247.39,427.83 247.53,427.00 C248.23,422.74 258.94,397.07 265.23,384.56 C269.60,375.87 285.12,351.44 290.69,344.49 C293.33,341.19 296.68,336.90 298.13,334.97 C303.04,328.40 320.46,310.69 330.51,302.05 C334.32,298.77 339.40,294.79 344.86,290.72 C344.12,291.32 343.64,291.77 343.50,291.99 C343.18,292.52 345.94,291.60 349.64,289.94 C354.28,287.85 358.24,285.03 362.43,280.82 L 368.50 274.72 L 362.50 278.48 C360.10,279.98 357.49,281.70 354.99,283.39 C361.90,278.54 368.61,274.13 373.50,271.32 C378.14,268.64 387.19,264.16 395.97,260.05 C389.05,263.36 378.00,269.12 378.00,269.53 C378.00,269.82 379.43,269.31 381.18,268.41 C382.93,267.50 386.19,266.64 388.43,266.49 C393.48,266.15 396.77,264.82 400.00,261.82 C403.40,258.66 403.71,256.78 400.62,257.95 C400.26,258.09 399.80,258.28 399.25,258.53 C406.54,255.17 413.22,252.28 416.50,251.16 C427.67,247.35 438.49,244.31 441.44,244.15 C443.06,244.06 444.64,243.64 444.94,243.21 C446.23,241.42 473.77,236.49 481.25,236.72 C483.99,236.80 486.00,236.42 486.00,235.81 C486.00,234.20 540.12,235.45 552.50,237.35 C559.64,238.44 566.73,239.79 573.67,241.35 C566.70,239.78 559.61,238.45 552.50,237.37 C541.57,235.72 490.49,234.43 499.50,236.03 C502.25,236.52 506.19,237.22 508.25,237.57 L 512.00 238.22 L 512.19 246.36 C512.30,250.84 512.33,255.62 512.26,257.00 C512.06,261.05 512.09,320.17 512.31,336.59 C512.54,354.72 512.44,354.93 503.63,355.17 C500.26,355.26 507.85,355.65 520.50,356.04 C530.30,356.35 538.25,356.80 545.11,357.50 C532.15,356.62 510.59,356.52 465.25,356.29 L 385.00 355.87 L 385.00 668.00 ZM 523.27 499.83 C517.12,499.97 508.15,500.00 494.41,500.00 L 456.00 500.00 L 456.00 413.84 L 457.00 413.85 L 457.02 419.67 C457.03,423.80 457.31,425.06 458.00,424.00 C458.86,422.67 458.97,422.67 459.00,424.00 C459.03,425.26 459.17,425.27 459.91,424.10 C460.43,423.30 461.51,422.98 462.49,423.36 C463.68,423.82 464.35,423.39 464.73,421.92 C465.13,420.38 465.49,420.17 466.08,421.13 C466.66,422.07 467.18,421.67 467.92,419.72 C468.84,417.28 469.45,417.00 473.78,417.00 C476.43,417.00 479.08,416.52 479.67,415.93 C481.12,414.48 509.42,415.86 511.65,417.48 C513.09,418.54 513.13,419.28 511.98,424.09 C510.69,429.46 510.58,436.33 511.44,457.50 C512.13,474.48 512.00,479.24 510.77,482.70 C509.92,485.09 509.92,486.84 510.77,482.70 C509.92,485.09 509.92,486.84 510.77,489.60 C511.49,491.94 511.57,493.94 510.99,495.02 C510.48,495.97 510.35,497.02 510.70,497.37 C511.05,497.72 508.67,498.08 505.42,498.18 L 499.50 498.36 L 507.00 499.00 C513.33,499.54 518.71,499.82 523.27,499.83 ZM 385.00 547.83 C385.00,485.19 384.80,434.11 384.55,434.11 L 384.55 434.12 C384.30,434.36 384.02,455.82 383.91,481.81 C383.81,507.80 383.33,529.29 382.86,529.59 C381.66,530.33 381.78,535.00 383.00,535.00 C383.55,535.00 383.99,537.36 383.98,540.25 C383.97,544.01 383.69,545.07 383.00,544.00 C382.30,542.92 382.03,543.91 382.03,547.50 C382.03,551.30 382.28,552.14 383.09,551.00 C383.86,549.92 383.97,551.88 383.50,558.00 C382.70,568.34 382.82,595.88 383.96,659.75 C383.98,660.99 384.23,662.00 384.50,662.00 C384.77,662.00 385.00,610.62 385.00,547.83 ZM 457.79 647.30 C457.86,640.26 457.90,630.00 457.87,624.50 C457.85,619.00 457.82,606.43 457.81,596.56 C457.80,586.70 457.42,577.70 456.96,576.56 C456.49,575.41 456.10,593.60 456.06,617.81 C456.03,641.63 456.37,660.89 456.82,660.61 C457.28,660.33 457.71,654.34 457.79,647.30 ZM 421.00 669.64 C426.77,669.60 436.01,669.94 441.52,670.41 C450.24,671.16 451.71,671.06 452.89,669.63 C454.14,668.13 451.66,668.01 420.87,668.14 C402.52,668.21 388.62,668.47 390.00,668.72 C391.38,668.97 392.95,669.62 393.50,670.18 C394.13,670.81 397.46,670.92 402.50,670.46 C406.90,670.06 415.23,669.69 421.00,669.64 ZM 364.00 745.58 C364.00,745.35 362.42,744.19 360.50,743.00 C358.58,741.81 357.00,740.28 357.00,739.59 C357.00,737.47 352.25,733.69 350.45,734.38 C348.01,735.32 328.41,719.77 329.60,717.84 C329.88,717.38 329.53,717.00 328.81,717.00 C326.23,717.00 301.41,691.77 302.40,690.16 C302.72,689.64 302.31,688.67 301.49,687.99 C300.67,687.31 299.99,687.15 299.98,687.63 C299.98,688.11 299.64,688.05 299.23,687.50 C298.83,686.95 297.39,685.60 296.03,684.50 C290.52,680.03 303.25,694.38 316.94,708.06 C332.14,723.27 340.79,730.59 354.94,740.24 C363.37,745.99 364.00,746.37 364.00,745.58 ZM 250.82 601.25 C250.87,599.74 251.07,595.21 251.25,591.20 C251.48,586.11 251.19,583.57 250.29,582.83 C249.32,582.02 249.00,582.20 249.00,583.56 C249.00,584.95 248.28,584.57 245.89,581.93 L 242.78 578.50 L 243.50 582.00 C244.35,586.13 249.95,604.00 250.40,604.00 C250.57,604.00 250.76,602.76 250.82,601.25 ZM 256.49 412.82 C257.91,412.17 258.86,411.07 258.59,410.37 C258.29,409.58 258.65,409.31 259.55,409.66 C260.92,410.18 261.55,407.94 261.07,404.25 C260.99,403.56 261.72,402.99 262.71,402.98 C264.05,402.97 264.17,402.76 263.19,402.14 C262.46,401.68 261.84,399.35 261.79,396.90 L 261.69 392.50 L 257.87,400.72 C254.01,409.04 252.32,414.00 253.34,414.00 C253.65,414.00 255.07,413.47 256.49,412.82 ZM 301.34 333.55 C302.35,332.08 304.19,330.50 305.42,330.03 C306.66,329.56 307.67,328.37 307.67,327.38 C307.67,326.39 309.17,324.44 311.00,323.04 C312.84,321.64 315.95,318.70 317.92,316.50 C321.18,312.86 330.04,304.25 339.00,296.02 C340.92,294.25 338.99,295.60 334.69,299.01 C321.49,309.51 292.93,339.40 293.03,342.61 C293.06,343.60 298.49,337.68 301.34,333.55 ZM 272.61 374.48 C273.64,373.12 274.93,372.00 275.49,371.99 C276.59,371.99 281.00,365.96 281.01,364.44 C281.02,361.66 283.25,356.19 285.26,354.00 C287.94,351.08 292.47,343.59 291.01,344.50 C289.72,345.29 274.14,368.95 270.59,375.50 C268.00,380.26 268.43,380.05 272.61,374.48 ZM 603.47 374.95 C603.11,374.38 602.08,374.02 601.16,374.16 C598.62,374.55 591.02,369.75 591.01,367.75 C591.00,365.71 592.10,365.50 593.80,367.20 C594.46,367.86 595.00,368.07 595.00,367.67 C595.00,367.28 596.35,367.64 597.99,368.50 C599.76,369.41 602.01,369.79 603.49,369.41 C605.69,368.86 606.00,369.11 606.00,371.39 C606.00,372.83 605.52,374.00 604.94,374.00 C604.36,374.00 604.16,374.45 604.50,375.00 C604.84,375.55 604.89,376.00 604.62,376.00 C604.34,376.00 603.83,375.53 603.47,374.95 ZM 556.47 356.14 C556.17,355.84 554.26,355.84 552.21,355.81 C549.46,355.97 548.89,355.77 550.00,355.03 C551.26,354.19 551.17,354.01 549.50,353.91 C548.40,353.85 549.28,353.32 551.45,352.75 C554.35,351.98 555.50,352.01 555.78,352.85 C555.99,353.48 557.03,354.00 558.08,354.00 C560.69,354.00 564.30,350.23 563.55,348.28 C563.06,346.98 563.21,346.93 564.48,347.98 C566.24,349.44 566.44,352.30 564.98,355.03 C564.25,356.39 562.97,356.90 560.49,356.81 C558.57,356.74 556.77,356.43 556.47,356.14 Z" />
    <path fill="#ABACAD" d="M 549.86 819.49 C526.41,822.43 493.99,822.22 470.00,818.97 C402.37,809.82 338.24,777.18 290.00,727.37 C260.23,696.64 238.22,662.49 222.71,623.00 C195.20,552.93 195.26,469.55 222.89,400.30 C252.69,325.57 307.45,266.84 379.33,232.49 C407.63,218.97 434.61,210.97 471.00,205.31 C488.97,202.51 537.42,202.80 556.44,205.81 C625.82,216.82 682.98,245.68 731.00,293.93 C764.17,327.27 788.71,366.13 803.87,409.36 C814.39,439.35 819.34,464.27 820.89,495.13 C824.61,568.86 803.42,638.73 759.73,696.84 C708.66,764.76 632.77,809.11 549.86,819.49 Z" />
    <path fill="#CECECE" d="M 0.00 512.00 L 0.00 0.00 L 512.00 0.00 L 1024.00 0.00 L 1024.00 512.00 L 1024.00 1024.00 L 512.00 1024.00 L 0.00 1024.00 L 0.00 512.00 ZM 549.86 819.49 C632.77,809.11 708.66,764.76 759.73,696.84 C803.42,638.73 824.61,568.86 820.89,495.13 C819.34,464.27 814.39,439.35 803.87,409.36 C788.71,366.13 764.17,327.27 731.00,293.93 C682.98,245.68 625.82,216.82 556.44,205.81 C537.42,202.80 488.97,202.51 471.00,205.31 C434.61,210.97 407.63,218.97 379.33,232.49 C307.45,266.84 252.69,325.57 222.89,400.30 C195.26,469.55 195.20,552.93 222.71,623.00 C238.22,662.49 260.23,696.64 290.00,727.37 C338.24,777.18 402.37,809.82 470.00,818.97 C493.99,822.22 526.41,822.43 549.86,819.49 ZM 385.00 511.94 L 385.00 355.87 L 465.25 356.29 C552.42,356.74 551.68,356.69 570.98,362.61 C610.51,374.73 635.40,405.46 639.01,446.58 C642.78,489.64 623.03,526.31 586.00,544.98 C583.53,546.22 581.35,547.37 581.17,547.53 C580.99,547.69 590.40,564.17 602.08,584.16 C642.02,652.50 650.00,666.36 650.00,667.41 C650.00,667.75 632.58,667.91 611.30,667.76 L 572.59 667.50 L 565.69 655.50 C561.88,648.90 547.76,624.26 534.30,600.75 L 509.83 558.00 L 482.91 558.00 L 456.00 558.00 L 456.00 613.00 L 456.00 668.00 L 420.50 668.00 L 385.00 668.00 L 385.00 511.94 ZM 538.88 498.12 C551.37,494.23 560.98,485.84 565.11,475.20 C568.44,466.62 568.91,451.35 566.12,442.17 C562.14,429.07 554.39,421.20 541.16,416.82 C534.85,414.73 532.45,414.60 495.25,414.23 L 456.00 413.84 L 456.00 456.92 L 456.00 500.00 L 494.41 500.00 C529.22,500.00 533.39,499.82 538.88,498.12 Z" />
</svg>
